<svg xmlns="http://www.w3.org/2000/svg" width="23.933" height="25.35" viewBox="0 0 23.933 25.35"><defs><style>.a{fill:#7c7c7c;}</style></defs><g transform="translate(-78.99 -62.658)"><path class="a" d="M102.619,156.38h-2.458V136.944a.3.3,0,0,0-.3-.3H95.808a.3.3,0,0,0-.3.3V156.38h-2.35V140.934a.3.3,0,0,0-.3-.3H88.8a.3.3,0,0,0-.3.3V156.38H86.411V145.318a.306.306,0,0,0-.3-.3H82.058a.306.306,0,0,0-.3.3V156.38h-2.46a.3.3,0,0,0,0,.608h23.325a.3.3,0,0,0,0-.608Zm-16.816,0H82.362V145.622H85.8Zm6.742,0H89.1V141.239h3.44Zm7.008,0H96.112V137.25h3.441Z" transform="translate(0 -68.98)"/><path class="a" d="M333.512,63.261l.348.068,1.728.352-.247,1.555-.047.285a.3.3,0,0,0,.254.345.282.282,0,0,0,.048,0,.3.3,0,0,0,.3-.256l.338-2.121a.3.3,0,0,0-.24-.345l-2.362-.482a.3.3,0,0,0-.122.6Z" transform="translate(-237.087 0)"/><path class="a" d="M120.344,95.956,135.6,86.441a.3.3,0,0,0-.322-.517L120.022,95.44a.3.3,0,1,0,.322.517Z" transform="translate(-38.124 -21.651)"/></g></svg>