<svg id="Out_line" height="512" viewBox="0 0 512 512" width="512" xmlns="http://www.w3.org/2000/svg" data-name="Out line"><path d="m488 88h-464a8.00008 8.00008 0 0 0 -8 8v304a8.00008 8.00008 0 0 0 8 8h464a8.00008 8.00008 0 0 0 8-8v-304a8.00008 8.00008 0 0 0 -8-8zm-8 16v112h-16v-40a8.00008 8.00008 0 0 0 -8-8 40.04552 40.04552 0 0 1 -40-40 8.00008 8.00008 0 0 0 -8-8h-312a8.00008 8.00008 0 0 0 -8 8 32.03635 32.03635 0 0 1 -32 32 8.00008 8.00008 0 0 0 -8 8v48h-16v-112zm-32 112h-120v-16a8.00008 8.00008 0 0 0 -8-8 24.0275 24.0275 0 0 1 -24-24 8.00008 8.00008 0 0 0 -8-8h-64a8.00008 8.00008 0 0 0 -8 8 24.0275 24.0275 0 0 1 -24 24 8.00008 8.00008 0 0 0 -8 8v16h-120v-40.6665a48.125 48.125 0 0 0 39.333-39.3335h297.23634a56.1309 56.1309 0 0 0 47.43066 47.43018zm-158.39941 84.80029-33.60059 25.19971-33.60059-25.19971a56.27056 56.27056 0 0 1 -22.39941-44.80029v-48.80371a40.12518 40.12518 0 0 0 31.19629-31.19629h49.60742a40.12518 40.12518 0 0 0 31.19629 31.19629v48.80371a56.27056 56.27056 0 0 1 -22.39941 44.80029zm-105.60059-68.80029v24a71.72209 71.72209 0 0 0 4.16064 24h-156.16064v-48zm-120 64h132.18286a71.71671 71.71671 0 0 0 16.61694 17.6001l38.4004 28.7998a7.999 7.999 0 0 0 9.5996 0l38.4004-28.7998a71.71671 71.71671 0 0 0 16.61694-17.6001h132.18286v16.56982a56.1309 56.1309 0 0 0 -47.43066 47.43018h-289.13868a56.1309 56.1309 0 0 0 -47.43066-47.43018zm259.83936-16a71.72209 71.72209 0 0 0 4.16064-24v-24h152v48zm-291.83936 112v-96h16v24a8.00008 8.00008 0 0 0 8 8 40.04552 40.04552 0 0 1 40 40 8.00008 8.00008 0 0 0 8 8h304a8.00008 8.00008 0 0 0 8-8 40.04552 40.04552 0 0 1 40-40 8.00008 8.00008 0 0 0 8-8v-24h16v96z"/><path d="m48 248h16v16h-16z"/><path d="m80 248h16v16h-16z"/><path d="m112 248h16v16h-16z"/><path d="m144 248h16v16h-16z"/><path d="m352 248h16v16h-16z"/><path d="m384 248h16v16h-16z"/><path d="m416 248h16v16h-16z"/><path d="m448 248h16v16h-16z"/><path d="m280 224v-8a24 24 0 0 0 -48 0v8a8.00008 8.00008 0 0 0 -8 8v40a8.00008 8.00008 0 0 0 8 8h48a8.00008 8.00008 0 0 0 8-8v-40a8.00008 8.00008 0 0 0 -8-8zm-32-8a8 8 0 0 1 16 0v8h-16zm24 48h-32v-24h32z"/></svg>