<svg xmlns="http://www.w3.org/2000/svg" width="17.004" height="20.646" viewBox="0 0 17.004 20.646"><defs><style>.a{fill:#253a66;}</style></defs><g transform="translate(-7.5 -5.724)"><path class="a" d="M24,14.3a.5.5,0,0,0,.5-.5V12a.48.48,0,0,0,0-.12h0a.49.49,0,0,0-.16-.22h0l-8-5.84a.5.5,0,0,0-.59,0l-8,5.84h0a.49.49,0,0,0-.16.22.48.48,0,0,0,0,.12v1.8a.5.5,0,0,0,.5.5H9.56v9.23H8a.5.5,0,0,0-.5.5v1.84a.5.5,0,0,0,.5.5H24a.5.5,0,0,0,.5-.5V24a.5.5,0,0,0-.5-.5H22.44V14.3ZM16,6.74l6.47,4.72H9.53ZM8.5,12.46h15v.84H8.5Zm7.94,11h-.87V14.3h.88Zm-5-9.16v9.16h-.87V14.3Zm1,0h2.13v9.23H12.44ZM23.5,25.38H8.5v-.84h15Zm-6.06-1.84V14.3h2.13v9.23Zm4-.08h-.87V14.3h.88Z"/></g></svg>