<svg xmlns="http://www.w3.org/2000/svg" width="21.964" height="19.681" viewBox="0 0 21.964 19.681"><defs><style>.a{fill:#253a66;}</style></defs><g transform="translate(-2 -6.989)"><g transform="translate(2 6.989)"><path class="a" d="M32.837,25.595a.825.825,0,0,0-1.428.625l.275,3.377a.55.55,0,0,0,1.1,0l.272-3.377A.826.826,0,0,0,32.837,25.595Zm-.4,3.972a.207.207,0,0,1-.412,0l-.272-3.375a.48.48,0,1,1,.956,0Z" transform="translate(-24.679 -21.133)"/><path class="a" d="M32.5,48.019a.742.742,0,1,0,.744.744A.744.744,0,0,0,32.5,48.019Zm0,1.142a.4.4,0,1,1,.4-.4A.4.4,0,0,1,32.5,49.161Z" transform="translate(-24.95 -38.632)"/><path class="a" d="M52.631,41.549a3.828,3.828,0,1,0,0,5.413A3.832,3.832,0,0,0,52.631,41.549Zm-.325,5.088a3.37,3.37,0,1,1,0-4.766A3.373,3.373,0,0,1,52.306,46.637Z" transform="translate(-36.007 -32.776)"/><path class="a" d="M51.526,49.7a2.745,2.745,0,0,0-.474,1.007.114.114,0,0,0,.084.138.112.112,0,0,0,.027,0,.114.114,0,0,0,.111-.087,2.531,2.531,0,0,1,.435-.924.114.114,0,0,0-.183-.137Z" transform="translate(-39.826 -39.896)"/><path class="a" d="M57.223,45.073a2.77,2.77,0,0,0-1.363.465.114.114,0,0,0,.128.189,2.537,2.537,0,0,1,1.25-.426.114.114,0,0,0,.107-.122A.117.117,0,0,0,57.223,45.073Z" transform="translate(-43.498 -36.359)"/><path class="a" d="M23.53,24.145,21,21.614a.231.231,0,0,0-.325,0l-.158.158-.567-.565A4.877,4.877,0,0,0,14.2,13.9L10.621,7.644a1.2,1.2,0,0,0-2.132,0L2.128,18.745A1.2,1.2,0,0,0,3.2,20.477H11.47a4.884,4.884,0,0,0,7,2.148l.6.6-.158.158a.231.231,0,0,0,0,.325l2.53,2.528a1.479,1.479,0,0,0,2.091-2.091ZM3.2,20.019a.739.739,0,0,1-.668-1.057L8.891,7.854a.74.74,0,0,1,1.322,0l.007.011,3.56,6.216a4.374,4.374,0,0,0-.583.336L10.34,9.431a.907.907,0,0,0-1.574,0l-4.9,8.562a.906.906,0,0,0,.789,1.357H11.12a4.53,4.53,0,0,0,.172.673Zm7.859-1.13H4.652a.448.448,0,0,1-.391-.673l4.9-8.559a.449.449,0,0,1,.78,0l2.883,5.036a4.8,4.8,0,0,0-.359.325A4.726,4.726,0,0,0,11.058,18.889Zm1.734,2.7a4.42,4.42,0,1,1,6.251,0A4.42,4.42,0,0,1,12.792,21.593Zm6.059.769a4.7,4.7,0,0,0,.515-.446c.11-.11.213-.224.309-.341l.519.522-.8.8Zm4.356,3.551a1.022,1.022,0,0,1-1.444,0l-2.37-2.368L20.839,22.1l2.368,2.37A1.022,1.022,0,0,1,23.207,25.913Z" transform="translate(-2 -6.989)"/></g></g></svg>