<svg xmlns="http://www.w3.org/2000/svg" width="24.258" height="23.733" viewBox="0 0 24.258 23.733"><defs><style>.a{fill:#253a66;}</style></defs><g transform="translate(-0.315 -1)"><g transform="translate(0.315 1)"><path class="a" d="M22.181,16.867l2.391-4.383h-1.8A10.335,10.335,0,0,0,8.535,3.3,4.208,4.208,0,1,0,2.706,8.866L.315,13.249h1.8a10.334,10.334,0,0,0,14.237,9.184,4.208,4.208,0,1,0,5.829-5.567ZM12.444,3.3a9.581,9.581,0,0,1,9.57,9.57v.383h1.269l-1.8,3.3a4.179,4.179,0,0,0-1.383-.238c-.14,0-.279.008-.415.021A8.018,8.018,0,0,0,8.978,5.626C8.991,5.489,9,5.351,9,5.211a4.2,4.2,0,0,0-.177-1.2A9.5,9.5,0,0,1,12.444,3.3ZM8.754,6.612A7.256,7.256,0,0,1,18.7,16.556a4.214,4.214,0,0,0-1.288.728,4.978,4.978,0,0,0-3.326-4.517,3.062,3.062,0,1,0-3.284,0A4.981,4.981,0,0,0,7.468,17.46v.7A7.222,7.222,0,0,1,6.189,9.177,4.226,4.226,0,0,0,8.754,6.612Zm5.987,9.317v1.914H10.147V15.929H9.381v1.914H8.233V17.46a4.214,4.214,0,0,1,2.708-3.929,1.529,1.529,0,0,0,3.006,0,4.214,4.214,0,0,1,2.708,3.929v.383H15.506V15.929Zm-2.3-3.445a2.3,2.3,0,1,1,2.3-2.3A2.3,2.3,0,0,1,12.444,12.484Zm.758.838a.761.761,0,0,1-1.517,0,4.031,4.031,0,0,1,1.517,0ZM1.343,5.211A3.445,3.445,0,1,1,7.528,7.29,3.047,3.047,0,0,0,6.057,5.868a1.914,1.914,0,1,0-2.537,0A3.049,3.049,0,0,0,2.048,7.29,3.422,3.422,0,0,1,1.343,5.211Zm4.594-.766A1.148,1.148,0,1,1,4.788,3.3,1.15,1.15,0,0,1,5.936,4.445ZM2.629,7.892a2.286,2.286,0,0,1,4.317,0,3.431,3.431,0,0,1-4.317,0Zm9.814,14.545a9.581,9.581,0,0,1-9.57-9.57v-.383H1.605l1.8-3.3a4.179,4.179,0,0,0,1.383.238c.14,0,.279-.008.415-.021A8.018,8.018,0,0,0,15.91,20.107c-.013.137-.021.275-.021.415a4.2,4.2,0,0,0,.177,1.2A9.489,9.489,0,0,1,12.444,22.436Zm3.69-3.315a7.212,7.212,0,0,1-7.9-.336v-.177h8.121A4.175,4.175,0,0,0,16.134,19.122ZM20.1,23.968a3.427,3.427,0,0,1-2.159-.764,2.286,2.286,0,0,1,4.317,0A3.427,3.427,0,0,1,20.1,23.968Zm-1.148-4.211A1.148,1.148,0,1,1,20.1,20.905,1.15,1.15,0,0,1,18.951,19.757ZM22.84,22.6a3.049,3.049,0,0,0-1.471-1.423,1.914,1.914,0,1,0-2.537,0A3.049,3.049,0,0,0,17.36,22.6a3.445,3.445,0,1,1,5.48,0Z" transform="translate(-0.315 -1)"/><path class="a" d="M15,26.754a6.526,6.526,0,0,0,.051.813l.759-.095a5.815,5.815,0,0,1-.044-.718,5.743,5.743,0,0,1,.768-2.871l-.663-.383A6.505,6.505,0,0,0,15,26.754Z" transform="translate(-9.379 -14.887)"/><path class="a" d="M15.536,35.941a6.462,6.462,0,0,0,.268.813l.71-.287a5.706,5.706,0,0,1-.237-.718Z" transform="translate(-9.709 -22.448)"/><path class="a" d="M46.645,28.557l.759-.1a6.449,6.449,0,0,0-.157-.8l-.741.195A5.737,5.737,0,0,1,46.645,28.557Z" transform="translate(-28.824 -17.454)"/><path class="a" d="M45.418,24.747l.71-.287a6.507,6.507,0,0,0-.351-.733l-.668.374A5.658,5.658,0,0,1,45.418,24.747Z" transform="translate(-27.962 -15.027)"/><path class="a" d="M43.97,20.936a6.544,6.544,0,0,0-.521-.624l-.556.527a5.745,5.745,0,0,1,.46.55Z" transform="translate(-26.594 -12.919)"/></g></g></svg>