<svg xmlns="http://www.w3.org/2000/svg" width="19.763" height="20.704" viewBox="0 0 19.763 20.704"><defs><style>.a{fill:#253a66;}</style></defs><g transform="translate(-8 -6)"><path class="a" d="M16,8.823V22a.471.471,0,1,1-.941,0V8.823a.471.471,0,0,1,.941,0Zm-2.823-.471a.472.472,0,0,0-.471.471V22a.471.471,0,0,0,.941,0V8.823A.472.472,0,0,0,13.176,8.353Zm7.058,0a.472.472,0,0,0-.471.471V22a.471.471,0,1,0,.941,0V8.823A.472.472,0,0,0,20.234,8.353Zm2.353,0a.472.472,0,0,0-.471.471V22a.471.471,0,1,0,.941,0V8.823A.472.472,0,0,0,22.587,8.353Zm5.176-.706V26.233a.472.472,0,0,1-.471.471H24.939a.472.472,0,0,1-.471-.471V24.821H11.294v1.412a.472.472,0,0,1-.471.471H8.471A.472.472,0,0,1,8,26.233V7.647A1.645,1.645,0,0,1,10.823,6.5,1.64,1.64,0,0,1,12,6H16.7a1.64,1.64,0,0,1,1.176.5A1.64,1.64,0,0,1,19.058,6h4.705a1.64,1.64,0,0,1,1.176.5,1.645,1.645,0,0,1,2.823,1.15Zm-17.41,16.7V7.647a.706.706,0,1,0-1.412,0V25.763h1.412Zm.941-.471h6.117V7.647a.708.708,0,0,0-.706-.706H12a.708.708,0,0,0-.706.706Zm13.175,0V7.647a.708.708,0,0,0-.706-.706H19.058a.708.708,0,0,0-.706.706V23.88ZM26.821,7.647a.706.706,0,0,0-1.412,0V25.763h1.412Z"/></g></svg>