<svg xmlns="http://www.w3.org/2000/svg" width="27.434" height="17.146" viewBox="0 0 27.434 17.146"><defs><style>.a{fill:#253a66;fill-rule:evenodd;}</style></defs><g transform="translate(-10 -25)"><g transform="translate(10 25)"><path class="a" d="M23.717,25A13.928,13.928,0,0,0,10,39.1a.686.686,0,0,0,1.372,0A12.555,12.555,0,0,1,23.717,26.372,12.555,12.555,0,0,1,36.062,39.1a.686.686,0,1,0,1.372,0A13.928,13.928,0,0,0,23.717,25" transform="translate(-10 -25)"/><path class="a" d="M44.884,54.253a2.058,2.058,0,1,1-2.91-2.91c.721-.721,3.791-2.192,6.07-3.16-.967,2.279-2.438,5.348-3.16,6.07m4.162-7.823a2.343,2.343,0,0,0-.908.227s-5.8,2.377-7.134,3.716a3.429,3.429,0,0,0,4.85,4.85c1.339-1.339,3.716-7.134,3.716-7.134.446-1.035.2-1.659-.524-1.659" transform="translate(-29.712 -39.081)"/><path class="a" d="M17.372,64h-.687a.686.686,0,0,0,0,1.372h.687a.686.686,0,0,0,0-1.372" transform="translate(-13.942 -50.626)"/><path class="a" d="M79.372,64h-.687a.686.686,0,0,0,0,1.372h.687a.686.686,0,0,0,0-1.372" transform="translate(-54.681 -50.626)"/><path class="a" d="M49.372,33.372v-.687a.686.686,0,0,0-1.372,0v.687a.686.686,0,0,0,1.372,0" transform="translate(-34.969 -29.6)"/><path class="a" d="M26.541,41.574a.686.686,0,0,0-.97.97l.486.486a.686.686,0,0,0,.97-.97Z" transform="translate(-20.1 -35.759)"/><path class="a" d="M69.9,41.572l-.486.486a.686.686,0,0,0,.97.97l.486-.486a.686.686,0,0,0-.97-.97" transform="translate(-48.908 -35.757)"/></g></g></svg>