<svg xmlns="http://www.w3.org/2000/svg" width="25.142" height="24.744" viewBox="0 0 25.142 24.744"><defs><style>.a{fill:#253a66;}</style></defs><g transform="translate(-4.998 -5.71)"><g transform="translate(4.998 5.71)"><path class="a" d="M11.533,18.868c-.565,0-.672-.533-.758-.966-.109-.561-.306-.693-.484-.749a.4.4,0,0,1-.041-.016c-.072-.019-.144-.04-.215-.063-.169-.041-.41-.03-.786.367-.327.346-.732.773-1.251.359l-.166-.132L7.5,17.4l-.011-.008-.007-.005-.284-.228L6.993,17l-.02-.016c-.516-.416-.191-.9.07-1.292.317-.472.271-.7.184-.871h0c0-.009-.009-.018-.013-.028-.038-.067-.074-.136-.109-.2-.1-.158-.271-.315-.818-.3-.48.012-1.064.027-1.137-.63L5,12.351c-.073-.66.5-.772.963-.863.559-.111.69-.307.746-.485a.334.334,0,0,1,.013-.035c.018-.07.041-.148.066-.224.041-.178.023-.41-.369-.782-.348-.33-.772-.732-.359-1.251l.822-1.027c.413-.518.9-.191,1.292.073.471.316.7.269.869.183l.021-.01,0,0c.068-.039.138-.074.208-.11.157-.1.313-.27.3-.82-.013-.478-.028-1.06.629-1.136l1.307-.146c.66-.072.774.5.865.965.108.556.306.687.485.744l.041.016c.07.019.141.04.21.061.169.042.411.034.787-.366.332-.349.735-.772,1.251-.36l.177.141.328.262.012.009.013.011h0l.5.4c.515.414.193.9-.066,1.284-.322.479-.275.712-.189.878,0,.009.009.02.014.03.034.061.066.123.1.185l0,0v0c.094.162.266.323.825.309.482-.012,1.065-.027,1.138.631l.071.633c0,.009,0,.018,0,.027a0,0,0,0,0,0,0l.016.146c.027.245.027.245.036.325l.02.173v0c.071.656-.5.769-.957.861-.564.11-.7.307-.752.485,0,.012-.009.026-.015.04-.019.071-.04.141-.062.212-.045.178-.032.412.368.79.347.329.771.733.359,1.25l-.146.183-.259.325-.008.009-.014.015-.4.494c-.412.515-.9.192-1.284-.066-.478-.322-.711-.276-.878-.19h0l-.027.013c-.061.035-.131.072-.2.108-.159.1-.315.271-.3.82.013.476.03,1.063-.63,1.137l-.222.025-.424.048-.022,0-.638.071C11.6,18.867,11.567,18.868,11.533,18.868Zm-.989-2.382a1.561,1.561,0,0,1,.928,1.266,3.055,3.055,0,0,0,.1.4l.637-.071h.009l.019,0,.406-.046.218-.025a2.962,2.962,0,0,0,0-.405,1.545,1.545,0,0,1,.663-1.466l.022-.012c.068-.034.135-.069.2-.107a.369.369,0,0,1,.049-.023,1.551,1.551,0,0,1,1.569.233,3.154,3.154,0,0,0,.349.214l.4-.5.012-.015,0,0,.251-.315.143-.179a3.019,3.019,0,0,0-.282-.289,1.546,1.546,0,0,1-.57-1.5l.005-.018c.023-.074.045-.147.065-.222a.3.3,0,0,1,.01-.031.4.4,0,0,1,.016-.037,1.557,1.557,0,0,1,1.27-.937,3.1,3.1,0,0,0,.4-.1l-.018-.162c-.009-.081-.009-.081-.036-.33l-.016-.144c0-.006,0-.011,0-.016l-.071-.637A2.991,2.991,0,0,0,16.9,11a1.553,1.553,0,0,1-1.461-.644.33.33,0,0,1-.021-.036L15.4,10.3c-.032-.062-.063-.123-.1-.182a.4.4,0,0,1-.027-.058A1.545,1.545,0,0,1,15.514,8.5a3.13,3.13,0,0,0,.215-.35l-.5-.4h0l-.02-.016-.32-.256-.172-.137a2.977,2.977,0,0,0-.287.28,1.543,1.543,0,0,1-1.5.572l-.018-.005c-.073-.023-.148-.045-.222-.064a.355.355,0,0,1-.073-.027h0a1.556,1.556,0,0,1-.932-1.269,2.994,2.994,0,0,0-.094-.4L10.3,6.569a3.005,3.005,0,0,0-.005.4,1.555,1.555,0,0,1-.659,1.469l-.02.011c-.071.036-.141.072-.21.111h0a.382.382,0,0,1-.048.023,1.553,1.553,0,0,1-1.568-.23,3.056,3.056,0,0,0-.349-.216l-.4.5-.015.019-.4.5a2.992,2.992,0,0,0,.28.287,1.557,1.557,0,0,1,.575,1.491c0,.01-.005.02-.009.03-.025.073-.046.15-.066.226a.374.374,0,0,1-.023.062,1.555,1.555,0,0,1-1.27.941,3.07,3.07,0,0,0-.4.094l.143,1.289a3.029,3.029,0,0,0,.4.005,1.553,1.553,0,0,1,1.466.658l.01.018c.036.07.073.141.113.209a.361.361,0,0,1,.028.059,1.554,1.554,0,0,1-.235,1.56,3.08,3.08,0,0,0-.216.35l.012.009.206.165.276.222.017.013h0l.34.271.163.129a3.019,3.019,0,0,0,.291-.284,1.545,1.545,0,0,1,1.493-.568l.023.007c.073.024.147.045.222.065a.361.361,0,0,1,.06.022Zm-.36.615.006,0Zm.3-.633.037.012Zm6.059-1.07Zm-.783-2.049c0,.006,0,.013-.007.02Zm1.678-1.016Zm-4.8-4.23.006,0ZM11.572,14.72a2.436,2.436,0,1,1,.273-.015h0A2.5,2.5,0,0,1,11.572,14.72Zm.009-4.149A1.721,1.721,0,0,0,9.87,12.479,1.717,1.717,0,0,0,11.767,14h0a1.718,1.718,0,0,0-.186-3.425Z" transform="translate(-4.998 -5.71)"/><g transform="translate(9.21 8.814)"><path class="a" d="M47.729,53.194c-.474,0-.708-.484-.918-.92-.259-.541-.537-.787-.9-.806h0l-.047-.006c-.094,0-.191,0-.291-.01-.358.006-.643.237-.923.744s-.607,1.1-1.291.794l-.271-.121-.469-.209-.034-.016h0l-.374-.168-.244-.109-.117-.052c-.684-.308-.465-.932-.272-1.483s.176-.935-.069-1.209h0l-.022-.026c-.068-.068-.131-.14-.195-.211l-.008-.009c-.258-.252-.624-.292-1.183-.129s-1.206.346-1.474-.355l-.087-.226c-.034-.087-.041-.105-.2-.537l-.01-.027-.288-.754c-.267-.7.325-.984.847-1.237L38.9,46.1c.541-.26.78-.529.8-.9a.384.384,0,0,1,.005-.044c0-.1,0-.2.01-.3-.007-.356-.237-.64-.743-.919s-1.1-.609-.792-1.292l.066-.15c.05-.112.05-.112.111-.249l.149-.331a.339.339,0,0,1,.018-.042l.331-.739c.305-.683.93-.464,1.48-.271.575.2.934.178,1.21-.07l.025-.02,0,0c.07-.069.143-.134.217-.2.253-.258.293-.623.13-1.183s-.345-1.207.354-1.474l.762-.291.554-.211.227-.087c.7-.264.989.333,1.243.861.261.543.53.781.9.8a.357.357,0,0,1,.054.007c.094,0,.186,0,.278.008.361,0,.647-.233.928-.744s.607-1.1,1.292-.792l.266.119.459.205.024.009.017.007.746.335c.681.306.463.93.271,1.481-.2.574-.18.933.069,1.209a.4.4,0,0,1,.025.032c.062.064.121.13.181.2l.009.009c.256.261.623.3,1.19.139s1.206-.346,1.475.351l.287.753v0a.293.293,0,0,1,.012.028l.012.032c.159.42.159.42.2.517l.082.214c.264.7-.325.984-.845,1.236l-.018.009c-.535.256-.78.533-.8.9h0a.431.431,0,0,1-.006.051c0,.094,0,.188-.009.282,0,.36.233.646.744.927s1.1.608.793,1.291l-.334.747h0l-.007.017-.335.744c-.306.684-.929.465-1.48.273-.568-.2-.938-.177-1.21.068l-.032.025c-.075.073-.146.137-.218.2-.249.246-.292.613-.127,1.18s.349,1.207-.354,1.473l-.279.107-.47.18a.334.334,0,0,1-.046.017l-.749.287A.9.9,0,0,1,47.729,53.194Zm-1.752-2.437a1.869,1.869,0,0,1,1.473,1.2,2.247,2.247,0,0,0,.3.523s.02-.006.051-.017l.763-.292.014,0h0l.764-.292a.2.2,0,0,0,.056-.028,2.663,2.663,0,0,0-.134-.577,1.851,1.851,0,0,1,.323-1.9c.087-.078.16-.144.23-.214a.4.4,0,0,1,.053-.043,1.873,1.873,0,0,1,1.891-.195,2.3,2.3,0,0,0,.58.16s.01-.018.023-.047l.33-.731c0-.007.005-.014.007-.019s.008-.019.013-.028l.327-.732a.2.2,0,0,0,.019-.06,2.6,2.6,0,0,0-.5-.313,1.858,1.858,0,0,1-1.12-1.565c0-.006,0-.013,0-.019.006-.1.009-.2.009-.292a.368.368,0,0,1,0-.05c0-.009,0-.019.006-.03a1.868,1.868,0,0,1,1.2-1.473l.016-.008a2.19,2.19,0,0,0,.508-.291s-.006-.02-.017-.05l-.082-.212c-.038-.1-.038-.1-.2-.521l-.007-.019h0c0-.009-.008-.018-.012-.027l-.292-.767a.184.184,0,0,0-.027-.053,2.59,2.59,0,0,0-.573.131,1.861,1.861,0,0,1-1.885-.3.382.382,0,0,1-.034-.033c-.066-.074-.132-.147-.2-.218l-.015-.016a.367.367,0,0,1-.028-.037,1.864,1.864,0,0,1-.195-1.89,2.274,2.274,0,0,0,.16-.58s-.018-.01-.047-.023L49,38.47l-.009,0-.029-.012-.473-.212-.269-.12a.192.192,0,0,0-.06-.019,2.606,2.606,0,0,0-.31.5,1.86,1.86,0,0,1-1.566,1.122h-.018c-.1-.005-.2-.009-.294-.008a.343.343,0,0,1-.083-.009l-.01,0a1.876,1.876,0,0,1-1.462-1.2,2.252,2.252,0,0,0-.3-.523s-.02.006-.051.017l-.225.086-.556.212-.763.291a.181.181,0,0,0-.055.028,2.607,2.607,0,0,0,.129.569,1.865,1.865,0,0,1-.314,1.9l-.014.013c-.077.069-.152.136-.225.208a.407.407,0,0,1-.035.031L42,41.351a1.877,1.877,0,0,1-1.89.2,2.274,2.274,0,0,0-.58-.161s-.01.018-.023.047l-.334.746h0l-.008.019-.333.743a.2.2,0,0,0-.02.061,2.656,2.656,0,0,0,.5.31,1.866,1.866,0,0,1,1.121,1.554c0,.008,0,.016,0,.024-.006.1-.009.205-.009.308a.343.343,0,0,1,0,.048c0,.009,0,.02-.006.03a1.88,1.88,0,0,1-1.2,1.467l-.015.008a2.209,2.209,0,0,0-.509.29s.006.02.017.05l.292.764a.251.251,0,0,1,.009.026l.2.527.087.227a.2.2,0,0,0,.029.058,2.583,2.583,0,0,0,.57-.13,1.867,1.867,0,0,1,1.9.313l.015.015.016.018c.061.069.123.138.189.2a.344.344,0,0,1,.03.034l.014.02a1.87,1.87,0,0,1,.2,1.892,2.251,2.251,0,0,0-.16.58s.018.01.047.023l.114.05.249.111.383.173L42.9,52l.014.007.461.205.274.122a.192.192,0,0,0,.059.019,2.59,2.59,0,0,0,.312-.5,1.866,1.866,0,0,1,1.56-1.121.173.173,0,0,1,.027,0c.1.007.2.011.29.009h.034A.327.327,0,0,1,45.977,50.757Zm2.518,1.453h0Zm0,0h0Zm1.836-2.562-.02.019Zm-8.891-.123Zm8.409-.4h0ZM42,49.113h0Zm7.932-.04h0Zm3.1-.659h0ZM40.408,45.221q0,.02,0,.039A.346.346,0,0,0,40.408,45.221Zm11.05.009h0Zm-11.741-.138,0,.01ZM52.941,42.7Zm0,0Zm0,0Zm0,0Zm0,0Zm0,0Zm-.07-.115.006.017Zm.66-.268h0Zm-14.364-.13-.005.011Zm.011-.029-.005.015ZM45.917,39.7h0Zm.173-.682.01,0Zm3.148-.557-.019.006Zm-3.3,9.887a3.124,3.124,0,1,1,1.109-.205h0A3.1,3.1,0,0,1,45.936,48.351Zm.982-.538h0Zm-.984-4.993a2.409,2.409,0,1,0,.857,4.66h0a2.409,2.409,0,0,0-.857-4.66Z" transform="translate(-37.968 -37.265)"/></g><path class="a" d="M11.533,18.868c-.565,0-.672-.533-.758-.966-.109-.561-.306-.693-.484-.749a.4.4,0,0,1-.041-.016c-.072-.019-.144-.04-.215-.063-.169-.041-.41-.03-.786.367-.327.346-.732.773-1.251.359l-.166-.132L7.5,17.4l-.011-.008-.007-.005-.284-.228L6.993,17l-.02-.016c-.516-.416-.191-.9.07-1.292.317-.472.271-.7.184-.871h0c0-.009-.009-.018-.013-.028-.038-.067-.074-.136-.109-.2-.1-.158-.271-.315-.818-.3-.48.012-1.064.027-1.137-.63L5,12.351c-.073-.66.5-.772.963-.863.559-.111.69-.307.746-.485a.334.334,0,0,1,.013-.035c.018-.07.041-.148.066-.224.041-.178.023-.41-.369-.782-.348-.33-.772-.732-.359-1.251l.822-1.027c.413-.518.9-.191,1.292.073.471.316.7.269.869.183l.021-.01,0,0c.068-.039.138-.074.208-.11.157-.1.313-.27.3-.82-.013-.478-.028-1.06.629-1.136l1.307-.146c.66-.072.774.5.865.965.108.556.306.687.485.744l.041.016c.07.019.141.04.21.061.169.042.411.034.787-.366.332-.349.735-.772,1.251-.36l.177.141.328.262.012.009.013.011h0l.5.4c.515.414.193.9-.066,1.284-.322.479-.275.712-.189.878,0,.009.009.02.014.03.034.061.066.123.1.185l0,0v0c.094.162.266.323.825.309.482-.012,1.065-.027,1.138.631l.071.633c0,.009,0,.018,0,.027a0,0,0,0,0,0,0l.016.146c.027.245.027.245.036.325l.02.173v0c.071.656-.5.769-.957.861-.564.11-.7.307-.752.485,0,.012-.009.026-.015.04-.019.071-.04.141-.062.212-.045.178-.032.412.368.79.347.329.771.733.359,1.25l-.146.183-.259.325-.008.009-.014.015-.4.494c-.412.515-.9.192-1.284-.066-.478-.322-.711-.276-.878-.19h0l-.027.013c-.061.035-.131.072-.2.108-.159.1-.315.271-.3.82.013.476.03,1.063-.63,1.137l-.222.025-.424.048-.022,0-.638.071C11.6,18.867,11.567,18.868,11.533,18.868Zm-.989-2.382a1.561,1.561,0,0,1,.928,1.266,3.055,3.055,0,0,0,.1.4l.637-.071h.009l.019,0,.406-.046.218-.025a2.962,2.962,0,0,0,0-.405,1.545,1.545,0,0,1,.663-1.466l.022-.012c.068-.034.135-.069.2-.107a.369.369,0,0,1,.049-.023,1.551,1.551,0,0,1,1.569.233,3.154,3.154,0,0,0,.349.214l.4-.5.012-.015,0,0,.251-.315.143-.179a3.019,3.019,0,0,0-.282-.289,1.546,1.546,0,0,1-.57-1.5l.005-.018c.023-.074.045-.147.065-.222a.3.3,0,0,1,.01-.031.4.4,0,0,1,.016-.037,1.557,1.557,0,0,1,1.27-.937,3.1,3.1,0,0,0,.4-.1l-.018-.162c-.009-.081-.009-.081-.036-.33l-.016-.144c0-.006,0-.011,0-.016l-.071-.637A2.991,2.991,0,0,0,16.9,11a1.553,1.553,0,0,1-1.461-.644.33.33,0,0,1-.021-.036L15.4,10.3c-.032-.062-.063-.123-.1-.182a.4.4,0,0,1-.027-.058A1.545,1.545,0,0,1,15.514,8.5a3.13,3.13,0,0,0,.215-.35l-.5-.4h0l-.02-.016-.32-.256-.172-.137a2.977,2.977,0,0,0-.287.28,1.543,1.543,0,0,1-1.5.572l-.018-.005c-.073-.023-.148-.045-.222-.064a.355.355,0,0,1-.073-.027h0a1.556,1.556,0,0,1-.932-1.269,2.994,2.994,0,0,0-.094-.4L10.3,6.569a3.005,3.005,0,0,0-.005.4,1.555,1.555,0,0,1-.659,1.469l-.02.011c-.071.036-.141.072-.21.111h0a.382.382,0,0,1-.048.023,1.553,1.553,0,0,1-1.568-.23,3.056,3.056,0,0,0-.349-.216l-.4.5-.015.019-.4.5a2.992,2.992,0,0,0,.28.287,1.557,1.557,0,0,1,.575,1.491c0,.01-.005.02-.009.03-.025.073-.046.15-.066.226a.374.374,0,0,1-.023.062,1.555,1.555,0,0,1-1.27.941,3.07,3.07,0,0,0-.4.094l.143,1.289a3.029,3.029,0,0,0,.4.005,1.553,1.553,0,0,1,1.466.658l.01.018c.036.07.073.141.113.209a.361.361,0,0,1,.028.059,1.554,1.554,0,0,1-.235,1.56,3.08,3.08,0,0,0-.216.35l.012.009.206.165.276.222.017.013h0l.34.271.163.129a3.019,3.019,0,0,0,.291-.284,1.545,1.545,0,0,1,1.493-.568l.023.007c.073.024.147.045.222.065a.361.361,0,0,1,.06.022Zm-.36.615.006,0Zm.3-.633.037.012Zm6.059-1.07Zm-.783-2.049c0,.006,0,.013-.007.02Zm1.678-1.016Zm-4.8-4.23.006,0ZM11.572,14.72a2.436,2.436,0,1,1,.273-.015h0A2.5,2.5,0,0,1,11.572,14.72Zm.009-4.149A1.721,1.721,0,0,0,9.87,12.479,1.717,1.717,0,0,0,11.767,14h0a1.718,1.718,0,0,0-.186-3.425Z" transform="translate(-4.998 -5.71)"/><g transform="translate(9.21 8.814)"><path class="a" d="M47.729,53.194c-.474,0-.708-.484-.918-.92-.259-.541-.537-.787-.9-.806h0l-.047-.006c-.094,0-.191,0-.291-.01-.358.006-.643.237-.923.744s-.607,1.1-1.291.794l-.271-.121-.469-.209-.034-.016h0l-.374-.168-.244-.109-.117-.052c-.684-.308-.465-.932-.272-1.483s.176-.935-.069-1.209h0l-.022-.026c-.068-.068-.131-.14-.195-.211l-.008-.009c-.258-.252-.624-.292-1.183-.129s-1.206.346-1.474-.355l-.087-.226c-.034-.087-.041-.105-.2-.537l-.01-.027-.288-.754c-.267-.7.325-.984.847-1.237L38.9,46.1c.541-.26.78-.529.8-.9a.384.384,0,0,1,.005-.044c0-.1,0-.2.01-.3-.007-.356-.237-.64-.743-.919s-1.1-.609-.792-1.292l.066-.15c.05-.112.05-.112.111-.249l.149-.331a.339.339,0,0,1,.018-.042l.331-.739c.305-.683.93-.464,1.48-.271.575.2.934.178,1.21-.07l.025-.02,0,0c.07-.069.143-.134.217-.2.253-.258.293-.623.13-1.183s-.345-1.207.354-1.474l.762-.291.554-.211.227-.087c.7-.264.989.333,1.243.861.261.543.53.781.9.8a.357.357,0,0,1,.054.007c.094,0,.186,0,.278.008.361,0,.647-.233.928-.744s.607-1.1,1.292-.792l.266.119.459.205.024.009.017.007.746.335c.681.306.463.93.271,1.481-.2.574-.18.933.069,1.209a.4.4,0,0,1,.025.032c.062.064.121.13.181.2l.009.009c.256.261.623.3,1.19.139s1.206-.346,1.475.351l.287.753v0a.293.293,0,0,1,.012.028l.012.032c.159.42.159.42.2.517l.082.214c.264.7-.325.984-.845,1.236l-.018.009c-.535.256-.78.533-.8.9h0a.431.431,0,0,1-.006.051c0,.094,0,.188-.009.282,0,.36.233.646.744.927s1.1.608.793,1.291l-.334.747h0l-.007.017-.335.744c-.306.684-.929.465-1.48.273-.568-.2-.938-.177-1.21.068l-.032.025c-.075.073-.146.137-.218.2-.249.246-.292.613-.127,1.18s.349,1.207-.354,1.473l-.279.107-.47.18a.334.334,0,0,1-.046.017l-.749.287A.9.9,0,0,1,47.729,53.194Zm-1.752-2.437a1.869,1.869,0,0,1,1.473,1.2,2.247,2.247,0,0,0,.3.523s.02-.006.051-.017l.763-.292.014,0h0l.764-.292a.2.2,0,0,0,.056-.028,2.663,2.663,0,0,0-.134-.577,1.851,1.851,0,0,1,.323-1.9c.087-.078.16-.144.23-.214a.4.4,0,0,1,.053-.043,1.873,1.873,0,0,1,1.891-.195,2.3,2.3,0,0,0,.58.16s.01-.018.023-.047l.33-.731c0-.007.005-.014.007-.019s.008-.019.013-.028l.327-.732a.2.2,0,0,0,.019-.06,2.6,2.6,0,0,0-.5-.313,1.858,1.858,0,0,1-1.12-1.565c0-.006,0-.013,0-.019.006-.1.009-.2.009-.292a.368.368,0,0,1,0-.05c0-.009,0-.019.006-.03a1.868,1.868,0,0,1,1.2-1.473l.016-.008a2.19,2.19,0,0,0,.508-.291s-.006-.02-.017-.05l-.082-.212c-.038-.1-.038-.1-.2-.521l-.007-.019h0c0-.009-.008-.018-.012-.027l-.292-.767a.184.184,0,0,0-.027-.053,2.59,2.59,0,0,0-.573.131,1.861,1.861,0,0,1-1.885-.3.382.382,0,0,1-.034-.033c-.066-.074-.132-.147-.2-.218l-.015-.016a.367.367,0,0,1-.028-.037,1.864,1.864,0,0,1-.195-1.89,2.274,2.274,0,0,0,.16-.58s-.018-.01-.047-.023L49,38.47l-.009,0-.029-.012-.473-.212-.269-.12a.192.192,0,0,0-.06-.019,2.606,2.606,0,0,0-.31.5,1.86,1.86,0,0,1-1.566,1.122h-.018c-.1-.005-.2-.009-.294-.008a.343.343,0,0,1-.083-.009l-.01,0a1.876,1.876,0,0,1-1.462-1.2,2.252,2.252,0,0,0-.3-.523s-.02.006-.051.017l-.225.086-.556.212-.763.291a.181.181,0,0,0-.055.028,2.607,2.607,0,0,0,.129.569,1.865,1.865,0,0,1-.314,1.9l-.014.013c-.077.069-.152.136-.225.208a.407.407,0,0,1-.035.031L42,41.351a1.877,1.877,0,0,1-1.89.2,2.274,2.274,0,0,0-.58-.161s-.01.018-.023.047l-.334.746h0l-.008.019-.333.743a.2.2,0,0,0-.02.061,2.656,2.656,0,0,0,.5.31,1.866,1.866,0,0,1,1.121,1.554c0,.008,0,.016,0,.024-.006.1-.009.205-.009.308a.343.343,0,0,1,0,.048c0,.009,0,.02-.006.03a1.88,1.88,0,0,1-1.2,1.467l-.015.008a2.209,2.209,0,0,0-.509.29s.006.02.017.05l.292.764a.251.251,0,0,1,.009.026l.2.527.087.227a.2.2,0,0,0,.029.058,2.583,2.583,0,0,0,.57-.13,1.867,1.867,0,0,1,1.9.313l.015.015.016.018c.061.069.123.138.189.2a.344.344,0,0,1,.03.034l.014.02a1.87,1.87,0,0,1,.2,1.892,2.251,2.251,0,0,0-.16.58s.018.01.047.023l.114.05.249.111.383.173L42.9,52l.014.007.461.205.274.122a.192.192,0,0,0,.059.019,2.59,2.59,0,0,0,.312-.5,1.866,1.866,0,0,1,1.56-1.121.173.173,0,0,1,.027,0c.1.007.2.011.29.009h.034A.327.327,0,0,1,45.977,50.757Zm2.518,1.453h0Zm0,0h0Zm1.836-2.562-.02.019Zm-8.891-.123Zm8.409-.4h0ZM42,49.113h0Zm7.932-.04h0Zm3.1-.659h0ZM40.408,45.221q0,.02,0,.039A.346.346,0,0,0,40.408,45.221Zm11.05.009h0Zm-11.741-.138,0,.01ZM52.941,42.7Zm0,0Zm0,0Zm0,0Zm0,0Zm0,0Zm-.07-.115.006.017Zm.66-.268h0Zm-14.364-.13-.005.011Zm.011-.029-.005.015ZM45.917,39.7h0Zm.173-.682.01,0Zm3.148-.557-.019.006Zm-3.3,9.887a3.124,3.124,0,1,1,1.109-.205h0A3.1,3.1,0,0,1,45.936,48.351Zm.982-.538h0Zm-.984-4.993a2.409,2.409,0,1,0,.857,4.66h0a2.409,2.409,0,0,0-.857-4.66Z" transform="translate(-37.968 -37.265)"/></g><path class="a" d="M11.533,18.868c-.565,0-.672-.533-.758-.966-.109-.561-.306-.693-.484-.749a.4.4,0,0,1-.041-.016c-.072-.019-.144-.04-.215-.063-.169-.041-.41-.03-.786.367-.327.346-.732.773-1.251.359l-.166-.132L7.5,17.4l-.011-.008-.007-.005-.284-.228L6.993,17l-.02-.016c-.516-.416-.191-.9.07-1.292.317-.472.271-.7.184-.871h0c0-.009-.009-.018-.013-.028-.038-.067-.074-.136-.109-.2-.1-.158-.271-.315-.818-.3-.48.012-1.064.027-1.137-.63L5,12.351c-.073-.66.5-.772.963-.863.559-.111.69-.307.746-.485a.334.334,0,0,1,.013-.035c.018-.07.041-.148.066-.224.041-.178.023-.41-.369-.782-.348-.33-.772-.732-.359-1.251l.822-1.027c.413-.518.9-.191,1.292.073.471.316.7.269.869.183l.021-.01,0,0c.068-.039.138-.074.208-.11.157-.1.313-.27.3-.82-.013-.478-.028-1.06.629-1.136l1.307-.146c.66-.072.774.5.865.965.108.556.306.687.485.744l.041.016c.07.019.141.04.21.061.169.042.411.034.787-.366.332-.349.735-.772,1.251-.36l.177.141.328.262.012.009.013.011h0l.5.4c.515.414.193.9-.066,1.284-.322.479-.275.712-.189.878,0,.009.009.02.014.03.034.061.066.123.1.185l0,0v0c.094.162.266.323.825.309.482-.012,1.065-.027,1.138.631l.071.633c0,.009,0,.018,0,.027a0,0,0,0,0,0,0l.016.146c.027.245.027.245.036.325l.02.173v0c.071.656-.5.769-.957.861-.564.11-.7.307-.752.485,0,.012-.009.026-.015.04-.019.071-.04.141-.062.212-.045.178-.032.412.368.79.347.329.771.733.359,1.25l-.146.183-.259.325-.008.009-.014.015-.4.494c-.412.515-.9.192-1.284-.066-.478-.322-.711-.276-.878-.19h0l-.027.013c-.061.035-.131.072-.2.108-.159.1-.315.271-.3.82.013.476.03,1.063-.63,1.137l-.222.025-.424.048-.022,0-.638.071C11.6,18.867,11.567,18.868,11.533,18.868Zm-.989-2.382a1.561,1.561,0,0,1,.928,1.266,3.055,3.055,0,0,0,.1.4l.637-.071h.009l.019,0,.406-.046.218-.025a2.962,2.962,0,0,0,0-.405,1.545,1.545,0,0,1,.663-1.466l.022-.012c.068-.034.135-.069.2-.107a.369.369,0,0,1,.049-.023,1.551,1.551,0,0,1,1.569.233,3.154,3.154,0,0,0,.349.214l.4-.5.012-.015,0,0,.251-.315.143-.179a3.019,3.019,0,0,0-.282-.289,1.546,1.546,0,0,1-.57-1.5l.005-.018c.023-.074.045-.147.065-.222a.3.3,0,0,1,.01-.031.4.4,0,0,1,.016-.037,1.557,1.557,0,0,1,1.27-.937,3.1,3.1,0,0,0,.4-.1l-.018-.162c-.009-.081-.009-.081-.036-.33l-.016-.144c0-.006,0-.011,0-.016l-.071-.637A2.991,2.991,0,0,0,16.9,11a1.553,1.553,0,0,1-1.461-.644.33.33,0,0,1-.021-.036L15.4,10.3c-.032-.062-.063-.123-.1-.182a.4.4,0,0,1-.027-.058A1.545,1.545,0,0,1,15.514,8.5a3.13,3.13,0,0,0,.215-.35l-.5-.4h0l-.02-.016-.32-.256-.172-.137a2.977,2.977,0,0,0-.287.28,1.543,1.543,0,0,1-1.5.572l-.018-.005c-.073-.023-.148-.045-.222-.064a.355.355,0,0,1-.073-.027h0a1.556,1.556,0,0,1-.932-1.269,2.994,2.994,0,0,0-.094-.4L10.3,6.569a3.005,3.005,0,0,0-.005.4,1.555,1.555,0,0,1-.659,1.469l-.02.011c-.071.036-.141.072-.21.111h0a.382.382,0,0,1-.048.023,1.553,1.553,0,0,1-1.568-.23,3.056,3.056,0,0,0-.349-.216l-.4.5-.015.019-.4.5a2.992,2.992,0,0,0,.28.287,1.557,1.557,0,0,1,.575,1.491c0,.01-.005.02-.009.03-.025.073-.046.15-.066.226a.374.374,0,0,1-.023.062,1.555,1.555,0,0,1-1.27.941,3.07,3.07,0,0,0-.4.094l.143,1.289a3.029,3.029,0,0,0,.4.005,1.553,1.553,0,0,1,1.466.658l.01.018c.036.07.073.141.113.209a.361.361,0,0,1,.028.059,1.554,1.554,0,0,1-.235,1.56,3.08,3.08,0,0,0-.216.35l.012.009.206.165.276.222.017.013h0l.34.271.163.129a3.019,3.019,0,0,0,.291-.284,1.545,1.545,0,0,1,1.493-.568l.023.007c.073.024.147.045.222.065a.361.361,0,0,1,.06.022Zm-.36.615.006,0Zm.3-.633.037.012Zm6.059-1.07Zm-.783-2.049c0,.006,0,.013-.007.02Zm1.678-1.016Zm-4.8-4.23.006,0ZM11.572,14.72a2.436,2.436,0,1,1,.273-.015h0A2.5,2.5,0,0,1,11.572,14.72Zm.009-4.149A1.721,1.721,0,0,0,9.87,12.479,1.717,1.717,0,0,0,11.767,14h0a1.718,1.718,0,0,0-.186-3.425Z" transform="translate(-4.998 -5.71)"/><g transform="translate(9.21 8.814)"><path class="a" d="M47.729,53.194c-.474,0-.708-.484-.918-.92-.259-.541-.537-.787-.9-.806h0l-.047-.006c-.094,0-.191,0-.291-.01-.358.006-.643.237-.923.744s-.607,1.1-1.291.794l-.271-.121-.469-.209-.034-.016h0l-.374-.168-.244-.109-.117-.052c-.684-.308-.465-.932-.272-1.483s.176-.935-.069-1.209h0l-.022-.026c-.068-.068-.131-.14-.195-.211l-.008-.009c-.258-.252-.624-.292-1.183-.129s-1.206.346-1.474-.355l-.087-.226c-.034-.087-.041-.105-.2-.537l-.01-.027-.288-.754c-.267-.7.325-.984.847-1.237L38.9,46.1c.541-.26.78-.529.8-.9a.384.384,0,0,1,.005-.044c0-.1,0-.2.01-.3-.007-.356-.237-.64-.743-.919s-1.1-.609-.792-1.292l.066-.15c.05-.112.05-.112.111-.249l.149-.331a.339.339,0,0,1,.018-.042l.331-.739c.305-.683.93-.464,1.48-.271.575.2.934.178,1.21-.07l.025-.02,0,0c.07-.069.143-.134.217-.2.253-.258.293-.623.13-1.183s-.345-1.207.354-1.474l.762-.291.554-.211.227-.087c.7-.264.989.333,1.243.861.261.543.53.781.9.8a.357.357,0,0,1,.054.007c.094,0,.186,0,.278.008.361,0,.647-.233.928-.744s.607-1.1,1.292-.792l.266.119.459.205.024.009.017.007.746.335c.681.306.463.93.271,1.481-.2.574-.18.933.069,1.209a.4.4,0,0,1,.025.032c.062.064.121.13.181.2l.009.009c.256.261.623.3,1.19.139s1.206-.346,1.475.351l.287.753v0a.293.293,0,0,1,.012.028l.012.032c.159.42.159.42.2.517l.082.214c.264.7-.325.984-.845,1.236l-.018.009c-.535.256-.78.533-.8.9h0a.431.431,0,0,1-.006.051c0,.094,0,.188-.009.282,0,.36.233.646.744.927s1.1.608.793,1.291l-.334.747h0l-.007.017-.335.744c-.306.684-.929.465-1.48.273-.568-.2-.938-.177-1.21.068l-.032.025c-.075.073-.146.137-.218.2-.249.246-.292.613-.127,1.18s.349,1.207-.354,1.473l-.279.107-.47.18a.334.334,0,0,1-.046.017l-.749.287A.9.9,0,0,1,47.729,53.194Zm-1.752-2.437a1.869,1.869,0,0,1,1.473,1.2,2.247,2.247,0,0,0,.3.523s.02-.006.051-.017l.763-.292.014,0h0l.764-.292a.2.2,0,0,0,.056-.028,2.663,2.663,0,0,0-.134-.577,1.851,1.851,0,0,1,.323-1.9c.087-.078.16-.144.23-.214a.4.4,0,0,1,.053-.043,1.873,1.873,0,0,1,1.891-.195,2.3,2.3,0,0,0,.58.16s.01-.018.023-.047l.33-.731c0-.007.005-.014.007-.019s.008-.019.013-.028l.327-.732a.2.2,0,0,0,.019-.06,2.6,2.6,0,0,0-.5-.313,1.858,1.858,0,0,1-1.12-1.565c0-.006,0-.013,0-.019.006-.1.009-.2.009-.292a.368.368,0,0,1,0-.05c0-.009,0-.019.006-.03a1.868,1.868,0,0,1,1.2-1.473l.016-.008a2.19,2.19,0,0,0,.508-.291s-.006-.02-.017-.05l-.082-.212c-.038-.1-.038-.1-.2-.521l-.007-.019h0c0-.009-.008-.018-.012-.027l-.292-.767a.184.184,0,0,0-.027-.053,2.59,2.59,0,0,0-.573.131,1.861,1.861,0,0,1-1.885-.3.382.382,0,0,1-.034-.033c-.066-.074-.132-.147-.2-.218l-.015-.016a.367.367,0,0,1-.028-.037,1.864,1.864,0,0,1-.195-1.89,2.274,2.274,0,0,0,.16-.58s-.018-.01-.047-.023L49,38.47l-.009,0-.029-.012-.473-.212-.269-.12a.192.192,0,0,0-.06-.019,2.606,2.606,0,0,0-.31.5,1.86,1.86,0,0,1-1.566,1.122h-.018c-.1-.005-.2-.009-.294-.008a.343.343,0,0,1-.083-.009l-.01,0a1.876,1.876,0,0,1-1.462-1.2,2.252,2.252,0,0,0-.3-.523s-.02.006-.051.017l-.225.086-.556.212-.763.291a.181.181,0,0,0-.055.028,2.607,2.607,0,0,0,.129.569,1.865,1.865,0,0,1-.314,1.9l-.014.013c-.077.069-.152.136-.225.208a.407.407,0,0,1-.035.031L42,41.351a1.877,1.877,0,0,1-1.89.2,2.274,2.274,0,0,0-.58-.161s-.01.018-.023.047l-.334.746h0l-.008.019-.333.743a.2.2,0,0,0-.02.061,2.656,2.656,0,0,0,.5.31,1.866,1.866,0,0,1,1.121,1.554c0,.008,0,.016,0,.024-.006.1-.009.205-.009.308a.343.343,0,0,1,0,.048c0,.009,0,.02-.006.03a1.88,1.88,0,0,1-1.2,1.467l-.015.008a2.209,2.209,0,0,0-.509.29s.006.02.017.05l.292.764a.251.251,0,0,1,.009.026l.2.527.087.227a.2.2,0,0,0,.029.058,2.583,2.583,0,0,0,.57-.13,1.867,1.867,0,0,1,1.9.313l.015.015.016.018c.061.069.123.138.189.2a.344.344,0,0,1,.03.034l.014.02a1.87,1.87,0,0,1,.2,1.892,2.251,2.251,0,0,0-.16.58s.018.01.047.023l.114.05.249.111.383.173L42.9,52l.014.007.461.205.274.122a.192.192,0,0,0,.059.019,2.59,2.59,0,0,0,.312-.5,1.866,1.866,0,0,1,1.56-1.121.173.173,0,0,1,.027,0c.1.007.2.011.29.009h.034A.327.327,0,0,1,45.977,50.757Zm2.518,1.453h0Zm0,0h0Zm1.836-2.562-.02.019Zm-8.891-.123Zm8.409-.4h0ZM42,49.113h0Zm7.932-.04h0Zm3.1-.659h0ZM40.408,45.221q0,.02,0,.039A.346.346,0,0,0,40.408,45.221Zm11.05.009h0Zm-11.741-.138,0,.01ZM52.941,42.7Zm0,0Zm0,0Zm0,0Zm0,0Zm0,0Zm-.07-.115.006.017Zm.66-.268h0Zm-14.364-.13-.005.011Zm.011-.029-.005.015ZM45.917,39.7h0Zm.173-.682.01,0Zm3.148-.557-.019.006Zm-3.3,9.887a3.124,3.124,0,1,1,1.109-.205h0A3.1,3.1,0,0,1,45.936,48.351Zm.982-.538h0Zm-.984-4.993a2.409,2.409,0,1,0,.857,4.66h0a2.409,2.409,0,0,0-.857-4.66Z" transform="translate(-37.968 -37.265)"/></g></g></g></svg>