<svg xmlns="http://www.w3.org/2000/svg" width="21" height="20.975" viewBox="0 0 21 20.975"><defs><style>.a{fill:#253a66;}</style></defs><g transform="translate(100 255.962)"><g transform="translate(-100 -255.962)"><path class="a" d="M26.528,8.672,24.351,6.5a1.653,1.653,0,0,0-2.283,0L20.514,8.05h-10.1A4.415,4.415,0,0,0,6,12.46V22.6a4.415,4.415,0,0,0,4.411,4.411H20.553A4.415,4.415,0,0,0,24.964,22.6V12.52l1.564-1.564A1.616,1.616,0,0,0,26.528,8.672Zm-11.5,12.646-3.151-.167L11.706,18l9.74-9.74,3.318,3.318ZM24.156,22.6a3.607,3.607,0,0,1-3.6,3.6H10.411a3.607,3.607,0,0,1-3.6-3.6V12.46a3.607,3.607,0,0,1,3.6-3.6h9.3L10.88,17.683l.225,4.235,4.235.225,8.816-8.817Zm1.8-12.218-.623.623L22.016,7.689l.623-.623a.826.826,0,0,1,1.142,0l2.177,2.176A.809.809,0,0,1,25.957,10.385Z" transform="translate(-6 -6.038)"/></g></g></svg>