<svg xmlns="http://www.w3.org/2000/svg" width="23.087" height="26.985" viewBox="0 0 23.087 26.985"><defs><style>.a,.b{fill:#253a66;}.b{font-size:5px;font-family:CenturyGothic, Century Gothic;text-decoration:line-through;}</style></defs><g transform="translate(0 -0.071)"><path class="a" d="M15.6,5A3.6,3.6,0,1,1,12,8.6,3.609,3.609,0,0,1,15.6,5Zm0,6.6a3,3,0,1,0-3-3A3.007,3.007,0,0,0,15.6,11.6Z" transform="translate(3.891 -4.929)"/><path class="a" d="M65.138,83.219A1.319,1.319,0,1,1,63.819,81.9,1.331,1.331,0,0,1,65.138,83.219Zm-2.009,0a.72.72,0,1,0,.72-.72A.73.73,0,0,0,63.13,83.219Z" transform="translate(-57.193 -58.772)"/><path class="a" d="M60.194,42.891H50V27H60.194Zm-.6-15.291H50.6V42.291h8.995Z" transform="translate(-48.501 -20.332)"/><path class="a" d="M62.3,22.6a.3.3,0,1,1,0-.6h1.8a.3.3,0,1,1,0,.6Z" transform="translate(-56.303 -16.831)"/><g transform="translate(0 -0.453)"><path class="a" d="M53.272,12.359,52.163,11.22l.42-.42,1.829,1.859-1.829,1.859-.42-.42,1.109-1.139H40.2V35.446H52.193V18.656h.6v17.39H39.6V12.359Z" transform="translate(-39.6 -8.536)"/><text class="b" transform="translate(19.543 5.755)"><tspan x="-1.849" y="0">N</tspan></text></g></g></svg>