<svg xmlns="http://www.w3.org/2000/svg" width="30.878" height="17.431" viewBox="0 0 30.878 17.431"><defs><style>.a{fill:#253a66;}.b{fill:#fff;font-size:6px;font-family:CenturyGothic, Century Gothic;text-decoration:line-through;}</style></defs><g transform="translate(-25.061 -628.477)"><g transform="translate(24.061 613.977)"><g transform="translate(1 14.5)"><path class="a" d="M20.463,21.093H11.947a.839.839,0,0,1-.847-.847.873.873,0,0,1,.847-.847h8.566a.839.839,0,0,1,.847.847A.884.884,0,0,1,20.463,21.093Z" transform="translate(-6.07 -16.96)"/><path class="a" d="M12.425,42.993H6.847a.847.847,0,1,1,0-1.693h5.578a.839.839,0,0,1,.847.847A.81.81,0,0,1,12.425,42.993Z" transform="translate(-3.51 -27.953)"/><path class="a" d="M9.915,31.993H1.847a.847.847,0,0,1,0-1.693H9.915a.847.847,0,1,1,0,1.693Z" transform="translate(-1 -22.431)"/><path class="a" d="M42.62,17.339A2.849,2.849,0,0,0,39.732,14.5H30.867l-.847,1.743h9.712a1.15,1.15,0,0,1,1.145,1.1V29.092a1.117,1.117,0,0,1-1.145,1.1H23.247L22.4,31.931l9.214-.05,8.118.05h0a2.881,2.881,0,0,0,2.889-2.839V17.339Z" transform="translate(-11.742 -14.5)"/><path class="a" d="M30.779,21,25.4,31.957h12A4.531,4.531,0,0,1,40.64,28.72V26.478Z" transform="translate(-13.248 -17.763)"/></g></g><text class="b" transform="translate(44 640)"><tspan x="-2.219" y="0">N</tspan></text></g></svg>