<svg xmlns="http://www.w3.org/2000/svg" width="24.013" height="24" viewBox="0 0 24.013 24"><defs><style>.a{fill:#253a66;fill-rule:evenodd;}</style></defs><path class="a" d="M1163.46,251.089l-7.75,4.592h0a.982.982,0,0,1-.56.263.859.859,0,0,1-.88-.281l-4.27-4.228-4.28,4.246a1.018,1.018,0,0,1-1.43,0h0a1,1,0,0,1,0-1.414l4.99-4.95a1.031,1.031,0,0,1,1.44,0l4.33,4.293,7.53-4.467a.917.917,0,0,1,1.33.444h0a1.207,1.207,0,0,1-.45,1.5ZM1163,262a1,1,0,0,1,0,2h-22a1,1,0,0,1-1-1V241a1,1,0,0,1,2,0v21Z" transform="translate(-1140 -240)"/></svg>